<svg xmlns="http://www.w3.org/2000/svg" xmlns:xlink="http://www.w3.org/1999/xlink" contentStyleType="text/css" data-diagram-type="DESCRIPTION" height="1127px" preserveAspectRatio="none" style="width:1616px;height:1127px;background:#FEFEFE;" version="1.1" viewBox="0 0 1616 1127" width="1616px" zoomAndPan="magnify"><title>Chat API Internal Component Dependencies</title><defs/><g><rect fill="#FEFEFE" height="1127" style="stroke:none;stroke-width:1;" width="1616" x="0" y="0"/><g class="title" data-source-line="2"><text fill="#000000" font-family="Helvetica" font-size="14" font-weight="bold" lengthAdjust="spacing" textLength="307.4668" x="647.3866" y="24.9659">Chat API Internal Component Dependencies</text></g><g class="legend" data-source-line="15"><rect fill="none" height="204.6792" rx="7.5" ry="7.5" style="stroke:#000000;stroke-width:1;" width="266.143" x="1324.097" y="52.0679"/><text fill="#000000" font-family="Helvetica" font-size="14" font-weight="bold" lengthAdjust="spacing" textLength="51.1278" x="1332.737" y="74.0339">Symbol</text><text fill="#000000" font-family="Helvetica" font-size="14" font-weight="bold" lengthAdjust="spacing" textLength="61.1798" x="1417.7586" y="74.0339">Meaning</text><text fill="#000000" font-family="Helvetica" font-size="14" lengthAdjust="spacing" textLength="3.64" x="1329.097" y="93.1018">&#160;</text><text fill="#000000" font-family="Helvetica" font-size="14" lengthAdjust="spacing" textLength="36.0078" x="1332.737" y="93.1018">&#8212;&#8212;&gt;</text><text fill="#000000" font-family="Helvetica" font-size="14" lengthAdjust="spacing" textLength="3.64" x="1368.7448" y="93.1018">&#160;</text><text fill="#000000" font-family="Helvetica" font-size="14" lengthAdjust="spacing" textLength="87.5417" x="1417.7586" y="93.1018">Direct import</text><text fill="#000000" font-family="Helvetica" font-size="14" lengthAdjust="spacing" textLength="3.64" x="1329.097" y="112.1697">&#160;</text><text fill="#000000" font-family="Helvetica" font-size="14" lengthAdjust="spacing" textLength="28.8119" x="1332.737" y="112.1697">- - -&gt;</text><text fill="#000000" font-family="Helvetica" font-size="14" lengthAdjust="spacing" textLength="3.64" x="1361.5488" y="112.1697">&#160;</text><text fill="#000000" font-family="Helvetica" font-size="14" lengthAdjust="spacing" textLength="163.8414" x="1417.7586" y="112.1697">Protocol implementation</text><text fill="#000000" font-family="Helvetica" font-size="14" lengthAdjust="spacing" textLength="3.64" x="1329.097" y="131.2376">&#160;</text><text fill="#808080" font-family="Helvetica" font-size="14" lengthAdjust="spacing" textLength="18.7599" x="1332.737" y="131.2376">.....</text><text fill="#000000" font-family="Helvetica" font-size="14" lengthAdjust="spacing" textLength="3.64" x="1351.4969" y="131.2376">&#160;</text><text fill="#000000" font-family="Helvetica" font-size="14" lengthAdjust="spacing" textLength="112.0696" x="1417.7586" y="131.2376">Type-only import</text><text fill="#000000" font-family="Helvetica" font-size="14" lengthAdjust="spacing" textLength="3.64" x="1329.097" y="150.3055">&#160;</text><text fill="#FFE6E6" font-family="Helvetica" font-size="14" lengthAdjust="spacing" textLength="77.7417" x="1332.737" y="150.3055">Component</text><text fill="#000000" font-family="Helvetica" font-size="14" lengthAdjust="spacing" textLength="3.64" x="1410.4787" y="150.3055">&#160;</text><text fill="#000000" font-family="Helvetica" font-size="14" lengthAdjust="spacing" textLength="61.8098" x="1417.7586" y="150.3055">API Layer</text><text fill="#000000" font-family="Helvetica" font-size="14" lengthAdjust="spacing" textLength="3.64" x="1329.097" y="169.3734">&#160;</text><text fill="#E6F3FF" font-family="Helvetica" font-size="14" lengthAdjust="spacing" textLength="77.7417" x="1332.737" y="169.3734">Component</text><text fill="#000000" font-family="Helvetica" font-size="14" lengthAdjust="spacing" textLength="3.64" x="1410.4787" y="169.3734">&#160;</text><text fill="#000000" font-family="Helvetica" font-size="14" lengthAdjust="spacing" textLength="86.3517" x="1417.7586" y="169.3734">Service Layer</text><text fill="#000000" font-family="Helvetica" font-size="14" lengthAdjust="spacing" textLength="3.64" x="1329.097" y="188.4414">&#160;</text><text fill="#E6FFE6" font-family="Helvetica" font-size="14" lengthAdjust="spacing" textLength="77.7417" x="1332.737" y="188.4414">Component</text><text fill="#000000" font-family="Helvetica" font-size="14" lengthAdjust="spacing" textLength="3.64" x="1410.4787" y="188.4414">&#160;</text><text fill="#000000" font-family="Helvetica" font-size="14" lengthAdjust="spacing" textLength="95.3816" x="1417.7586" y="188.4414">Provider Layer</text><text fill="#000000" font-family="Helvetica" font-size="14" lengthAdjust="spacing" textLength="3.64" x="1329.097" y="207.5093">&#160;</text><text fill="#FFE6F9" font-family="Helvetica" font-size="14" lengthAdjust="spacing" textLength="77.7417" x="1332.737" y="207.5093">Component</text><text fill="#000000" font-family="Helvetica" font-size="14" lengthAdjust="spacing" textLength="3.64" x="1410.4787" y="207.5093">&#160;</text><text fill="#000000" font-family="Helvetica" font-size="14" lengthAdjust="spacing" textLength="90.9997" x="1417.7586" y="207.5093">Storage Layer</text><text fill="#000000" font-family="Helvetica" font-size="14" lengthAdjust="spacing" textLength="3.64" x="1329.097" y="226.5772">&#160;</text><text fill="#FFF9E6" font-family="Helvetica" font-size="14" lengthAdjust="spacing" textLength="77.7417" x="1332.737" y="226.5772">Component</text><text fill="#000000" font-family="Helvetica" font-size="14" lengthAdjust="spacing" textLength="3.64" x="1410.4787" y="226.5772">&#160;</text><text fill="#000000" font-family="Helvetica" font-size="14" lengthAdjust="spacing" textLength="112.3076" x="1417.7586" y="226.5772">Shared/Common</text><text fill="#000000" font-family="Helvetica" font-size="14" lengthAdjust="spacing" textLength="3.64" x="1329.097" y="245.6451">&#160;</text><text fill="#E0E0E0" font-family="Helvetica" font-size="14" lengthAdjust="spacing" textLength="77.7417" x="1332.737" y="245.6451">Component</text><text fill="#000000" font-family="Helvetica" font-size="14" lengthAdjust="spacing" textLength="3.64" x="1410.4787" y="245.6451">&#160;</text><text fill="#000000" font-family="Helvetica" font-size="14" lengthAdjust="spacing" textLength="79.0157" x="1417.7586" y="245.6451">Entry Points</text><line style="stroke:#000000;stroke-width:1;" x1="1329.097" x2="1585.24" y1="59.0679" y2="59.0679"/><line style="stroke:#000000;stroke-width:1;" x1="1329.097" x2="1585.24" y1="78.1358" y2="78.1358"/><line style="stroke:#000000;stroke-width:1;" x1="1329.097" x2="1585.24" y1="97.2038" y2="97.2038"/><line style="stroke:#000000;stroke-width:1;" x1="1329.097" x2="1585.24" y1="116.2717" y2="116.2717"/><line style="stroke:#000000;stroke-width:1;" x1="1329.097" x2="1585.24" y1="135.3396" y2="135.3396"/><line style="stroke:#000000;stroke-width:1;" x1="1329.097" x2="1585.24" y1="154.4075" y2="154.4075"/><line style="stroke:#000000;stroke-width:1;" x1="1329.097" x2="1585.24" y1="173.4754" y2="173.4754"/><line style="stroke:#000000;stroke-width:1;" x1="1329.097" x2="1585.24" y1="192.5433" y2="192.5433"/><line style="stroke:#000000;stroke-width:1;" x1="1329.097" x2="1585.24" y1="211.6113" y2="211.6113"/><line style="stroke:#000000;stroke-width:1;" x1="1329.097" x2="1585.24" y1="230.6792" y2="230.6792"/><line style="stroke:#000000;stroke-width:1;" x1="1329.097" x2="1585.24" y1="249.7471" y2="249.7471"/><line style="stroke:#000000;stroke-width:1;" x1="1329.097" x2="1329.097" y1="59.0679" y2="249.7471"/><line style="stroke:#000000;stroke-width:1;" x1="1414.1186" x2="1414.1186" y1="59.0679" y2="249.7471"/><line style="stroke:#000000;stroke-width:1;" x1="1585.24" x2="1585.24" y1="59.0679" y2="249.7471"/></g><!--cluster Entry Points--><g class="cluster" data-entity="Entry Points" data-source-line="32" data-uid="ent0002" id="cluster_Entry Points"><rect fill="#E0E0E0" height="178" rx="2.5" ry="2.5" style="stroke:#181818;stroke-width:1;" width="117.18" x="7" y="478.7471"/><text fill="#000000" font-family="Helvetica" font-size="12" font-weight="bold" lengthAdjust="spacing" textLength="72.6365" x="29.2717" y="493.5752">Entry Points</text></g><!--cluster API Layer--><g class="cluster" data-entity="API Layer" data-source-line="38" data-uid="ent0005" id="cluster_API Layer"><rect fill="#FFE6E6" height="104" rx="2.5" ry="2.5" style="stroke:#181818;stroke-width:1;" width="528.79" x="373.15" y="471.7471"/><text fill="#000000" font-family="Helvetica" font-size="12" font-weight="bold" lengthAdjust="spacing" textLength="56.8204" x="609.1348" y="486.5752">API Layer</text></g><!--cluster Service Layer--><g class="cluster" data-entity="Service Layer" data-source-line="44" data-uid="ent0008" id="cluster_Service Layer"><rect fill="#E6F3FF" height="97" rx="2.5" ry="2.5" style="stroke:#181818;stroke-width:1;" width="112.95" x="767.69" y="639.7471"/><text fill="#000000" font-family="Helvetica" font-size="12" font-weight="bold" lengthAdjust="spacing" textLength="79.3326" x="784.4987" y="654.5752">Service Layer</text></g><!--cluster Provider Layer--><g class="cluster" data-entity="Provider Layer" data-source-line="49" data-uid="ent0010" id="cluster_Provider Layer"><rect fill="#E6FFE6" height="176" rx="2.5" ry="2.5" style="stroke:#181818;stroke-width:1;" width="413.07" x="1180.29" y="276.7471"/><text fill="#000000" font-family="Helvetica" font-size="12" font-weight="bold" lengthAdjust="spacing" textLength="87.2646" x="1343.1927" y="291.5752">Provider Layer</text></g><!--cluster Storage Layer--><g class="cluster" data-entity="Storage Layer" data-source-line="55" data-uid="ent0013" id="cluster_Storage Layer"><rect fill="#FFE6F9" height="192" rx="2.5" ry="2.5" style="stroke:#181818;stroke-width:1;" width="131.89" x="1185.52" y="748.7471"/><text fill="#000000" font-family="Helvetica" font-size="12" font-weight="bold" lengthAdjust="spacing" textLength="83.0166" x="1209.9567" y="763.5752">Storage Layer</text></g><!--cluster Shared--><g class="cluster" data-entity="Shared" data-source-line="60" data-uid="ent0015" id="cluster_Shared"><rect fill="#FFF9E6" height="259" rx="2.5" ry="2.5" style="stroke:#181818;stroke-width:1;" width="149.6" x="1460.64" y="547.7471"/><text fill="#000000" font-family="Helvetica" font-size="12" font-weight="bold" lengthAdjust="spacing" textLength="41.7123" x="1514.5839" y="562.5752">Shared</text></g><!--entity main--><g class="entity" data-entity="main" data-source-line="33" data-uid="ent0003" id="entity_main"><rect fill="#E0E0E0" height="46.3441" rx="2.5" ry="2.5" style="stroke:#4A90E2;stroke-width:0.5;" width="85.1803" x="23" y="594.5771"/><rect fill="#E0E0E0" height="10" style="stroke:#4A90E2;stroke-width:0.5;" width="15" x="88.1803" y="599.5771"/><rect fill="#E0E0E0" height="2" style="stroke:#4A90E2;stroke-width:0.5;" width="4" x="86.1803" y="601.5771"/><rect fill="#E0E0E0" height="2" style="stroke:#4A90E2;stroke-width:0.5;" width="4" x="86.1803" y="605.5771"/><text fill="#000000" font-family="Helvetica" font-size="12" lengthAdjust="spacing" text-decoration="underline" textLength="28.4642" x="38" y="627.4052">main</text><text fill="#000000" font-family="Helvetica" font-size="12" lengthAdjust="spacing" textLength="16.7161" x="66.4642" y="627.4052">.py</text></g><!--entity aws--><g class="entity" data-entity="aws" data-source-line="34" data-uid="ent0004" id="entity_aws"><rect fill="#E0E0E0" height="46.3441" rx="2.5" ry="2.5" style="stroke:#4A90E2;stroke-width:0.5;" width="78.6283" x="26.28" y="513.5771"/><rect fill="#E0E0E0" height="10" style="stroke:#4A90E2;stroke-width:0.5;" width="15" x="84.9083" y="518.5771"/><rect fill="#E0E0E0" height="2" style="stroke:#4A90E2;stroke-width:0.5;" width="4" x="82.9083" y="520.5771"/><rect fill="#E0E0E0" height="2" style="stroke:#4A90E2;stroke-width:0.5;" width="4" x="82.9083" y="524.5771"/><text fill="#000000" font-family="Helvetica" font-size="12" lengthAdjust="spacing" textLength="38.6283" x="41.28" y="546.4052">aws.py</text></g><!--entity api--><g class="entity" data-entity="api" data-source-line="39" data-uid="ent0006" id="entity_api"><rect fill="#FFE6E6" height="46.3441" rx="2.5" ry="2.5" style="stroke:#4A90E2;stroke-width:0.5;" width="73.9242" x="389.15" y="513.5771"/><rect fill="#FFE6E6" height="10" style="stroke:#4A90E2;stroke-width:0.5;" width="15" x="443.0742" y="518.5771"/><rect fill="#FFE6E6" height="2" style="stroke:#4A90E2;stroke-width:0.5;" width="4" x="441.0742" y="520.5771"/><rect fill="#FFE6E6" height="2" style="stroke:#4A90E2;stroke-width:0.5;" width="4" x="441.0742" y="524.5771"/><text fill="#000000" font-family="Helvetica" font-size="12" lengthAdjust="spacing" textLength="33.9242" x="404.15" y="546.4052">api.py</text></g><!--entity middleware--><g class="entity" data-entity="middleware" data-source-line="40" data-uid="ent0007" id="entity_middleware"><rect fill="#FFE6E6" height="46.3441" rx="2.5" ry="2.5" style="stroke:#4A90E2;stroke-width:0.5;" width="123.5446" x="762.39" y="506.5771"/><rect fill="#FFE6E6" height="10" style="stroke:#4A90E2;stroke-width:0.5;" width="15" x="865.9346" y="511.5771"/><rect fill="#FFE6E6" height="2" style="stroke:#4A90E2;stroke-width:0.5;" width="4" x="863.9346" y="513.5771"/><rect fill="#FFE6E6" height="2" style="stroke:#4A90E2;stroke-width:0.5;" width="4" x="863.9346" y="517.5771"/><text fill="#000000" font-family="Helvetica" font-size="12" lengthAdjust="spacing" textLength="83.5446" x="777.39" y="539.4052">middleware.py</text></g><!--entity chat--><g class="entity" data-entity="chat" data-source-line="45" data-uid="ent0009" id="entity_chat"><rect fill="#E6F3FF" height="46.3441" rx="2.5" ry="2.5" style="stroke:#4A90E2;stroke-width:0.5;" width="80.9563" x="783.69" y="674.5771"/><rect fill="#E6F3FF" height="10" style="stroke:#4A90E2;stroke-width:0.5;" width="15" x="844.6463" y="679.5771"/><rect fill="#E6F3FF" height="2" style="stroke:#4A90E2;stroke-width:0.5;" width="4" x="842.6463" y="681.5771"/><rect fill="#E6F3FF" height="2" style="stroke:#4A90E2;stroke-width:0.5;" width="4" x="842.6463" y="685.5771"/><text fill="#000000" font-family="Helvetica" font-size="12" lengthAdjust="spacing" textLength="40.9563" x="798.69" y="707.4052">chat.py</text></g><!--entity providers--><g class="entity" data-entity="providers" data-source-line="50" data-uid="ent0011" id="entity_providers"><rect fill="#E6FFE6" height="46.3441" rx="2.5" ry="2.5" style="stroke:#4A90E2;stroke-width:0.5;" width="110.3565" x="1196.29" y="390.5771"/><rect fill="#E6FFE6" height="10" style="stroke:#4A90E2;stroke-width:0.5;" width="15" x="1286.6465" y="395.5771"/><rect fill="#E6FFE6" height="2" style="stroke:#4A90E2;stroke-width:0.5;" width="4" x="1284.6465" y="397.5771"/><rect fill="#E6FFE6" height="2" style="stroke:#4A90E2;stroke-width:0.5;" width="4" x="1284.6465" y="401.5771"/><text fill="#000000" font-family="Helvetica" font-size="12" lengthAdjust="spacing" textLength="70.3565" x="1211.29" y="423.4052">providers.py</text></g><!--entity retry_mod--><g class="entity" data-entity="retry_mod" data-source-line="51" data-uid="ent0012" id="entity_retry_mod"><rect fill="#E6FFE6" height="46.3441" rx="2.5" ry="2.5" style="stroke:#4A90E2;stroke-width:0.5;" width="83.8483" x="1493.52" y="372.5771"/><rect fill="#E6FFE6" height="10" style="stroke:#4A90E2;stroke-width:0.5;" width="15" x="1557.3683" y="377.5771"/><rect fill="#E6FFE6" height="2" style="stroke:#4A90E2;stroke-width:0.5;" width="4" x="1555.3683" y="379.5771"/><rect fill="#E6FFE6" height="2" style="stroke:#4A90E2;stroke-width:0.5;" width="4" x="1555.3683" y="383.5771"/><text fill="#000000" font-family="Helvetica" font-size="12" lengthAdjust="spacing" textLength="43.8483" x="1508.52" y="405.4052">retry.py</text></g><!--entity storage--><g class="entity" data-entity="storage" data-source-line="56" data-uid="ent0014" id="entity_storage"><rect fill="#FFE6F9" height="46.3441" rx="2.5" ry="2.5" style="stroke:#4A90E2;stroke-width:0.5;" width="99.8924" x="1201.52" y="878.5771"/><rect fill="#FFE6F9" height="10" style="stroke:#4A90E2;stroke-width:0.5;" width="15" x="1281.4124" y="883.5771"/><rect fill="#FFE6F9" height="2" style="stroke:#4A90E2;stroke-width:0.5;" width="4" x="1279.4124" y="885.5771"/><rect fill="#FFE6F9" height="2" style="stroke:#4A90E2;stroke-width:0.5;" width="4" x="1279.4124" y="889.5771"/><text fill="#000000" font-family="Helvetica" font-size="12" lengthAdjust="spacing" textLength="59.8924" x="1216.52" y="911.4052">storage.py</text></g><!--entity config--><g class="entity" data-entity="config" data-source-line="61" data-uid="ent0016" id="entity_config"><rect fill="#FFF9E6" height="46.3441" rx="2.5" ry="2.5" style="stroke:#4A90E2;stroke-width:0.5;" width="91.7564" x="1489.56" y="744.5771"/><rect fill="#FFF9E6" height="10" style="stroke:#4A90E2;stroke-width:0.5;" width="15" x="1561.3164" y="749.5771"/><rect fill="#FFF9E6" height="2" style="stroke:#4A90E2;stroke-width:0.5;" width="4" x="1559.3164" y="751.5771"/><rect fill="#FFF9E6" height="2" style="stroke:#4A90E2;stroke-width:0.5;" width="4" x="1559.3164" y="755.5771"/><text fill="#000000" font-family="Helvetica" font-size="12" lengthAdjust="spacing" textLength="51.7564" x="1504.56" y="777.4052">config.py</text></g><!--entity exceptions--><g class="entity" data-entity="exceptions" data-source-line="62" data-uid="ent0017" id="entity_exceptions"><rect fill="#FFF9E6" height="46.3441" rx="2.5" ry="2.5" style="stroke:#4A90E2;stroke-width:0.5;" width="117.5925" x="1476.64" y="663.5771"/><rect fill="#FFF9E6" height="10" style="stroke:#4A90E2;stroke-width:0.5;" width="15" x="1574.2325" y="668.5771"/><rect fill="#FFF9E6" height="2" style="stroke:#4A90E2;stroke-width:0.5;" width="4" x="1572.2325" y="670.5771"/><rect fill="#FFF9E6" height="2" style="stroke:#4A90E2;stroke-width:0.5;" width="4" x="1572.2325" y="674.5771"/><text fill="#000000" font-family="Helvetica" font-size="12" lengthAdjust="spacing" textLength="77.5925" x="1491.64" y="696.4052">exceptions.py</text></g><!--entity types--><g class="entity" data-entity="types" data-source-line="63" data-uid="ent0018" id="entity_types"><rect fill="#FFF9E6" height="46.3441" rx="2.5" ry="2.5" style="stroke:#4A90E2;stroke-width:0.5;" width="87.0643" x="1491.91" y="582.5771"/><rect fill="#FFF9E6" height="10" style="stroke:#4A90E2;stroke-width:0.5;" width="15" x="1558.9743" y="587.5771"/><rect fill="#FFF9E6" height="2" style="stroke:#4A90E2;stroke-width:0.5;" width="4" x="1556.9743" y="589.5771"/><rect fill="#FFF9E6" height="2" style="stroke:#4A90E2;stroke-width:0.5;" width="4" x="1556.9743" y="593.5771"/><text fill="#000000" font-family="Helvetica" font-size="12" lengthAdjust="spacing" textLength="47.0643" x="1506.91" y="615.4052">types.py</text></g><g class="entity" data-entity="GMN41" data-source-line="104" data-uid="ent0042" id="entity_GMN41"><path d="M683.05,396.2271 L683.05,455.2594 L965.2919,455.2594 L965.2919,406.2271 L955.2919,396.2271 L683.05,396.2271" fill="#FFFFCC" style="stroke:#181818;stroke-width:0.5;"/><path d="M955.2919,396.2271 L955.2919,406.2271 L965.2919,406.2271 L955.2919,396.2271" fill="#FFFFCC" style="stroke:#181818;stroke-width:1;"/><text fill="#000000" font-family="Helvetica" font-size="12" lengthAdjust="spacing" textLength="218.5336" x="689.05" y="414.0552">ChatService uses dependency injection</text><text fill="#000000" font-family="Helvetica" font-size="12" lengthAdjust="spacing" textLength="261.2419" x="689.05" y="430.3993">to receive LLMProvider, Repository, and Cache</text><text fill="#000000" font-family="Helvetica" font-size="12" lengthAdjust="spacing" textLength="158.3891" x="689.05" y="446.7434">implementations at runtime</text></g><g class="entity" data-entity="GMN44" data-source-line="111" data-uid="ent0045" id="entity_GMN44"><path d="M316.18,396.2271 L316.18,455.2594 A0,0 0 0 0 316.18,455.2594 L422.11,455.2594 L426.11,513.3371 L430.11,455.2594 L536.0454,455.2594 A0,0 0 0 0 536.0454,455.2594 L536.0454,406.2271 L526.0454,396.2271 L316.18,396.2271 A0,0 0 0 0 316.18,396.2271" fill="#FFFFCC" style="stroke:#181818;stroke-width:0.5;"/><path d="M526.0454,396.2271 L526.0454,406.2271 L536.0454,406.2271 L526.0454,396.2271" fill="#FFFFCC" style="stroke:#181818;stroke-width:0.5;"/><text fill="#000000" font-family="Helvetica" font-size="12" lengthAdjust="spacing" textLength="198.8654" x="322.18" y="414.0552">No circular dependencies detected.</text><text fill="#000000" font-family="Helvetica" font-size="12" lengthAdjust="spacing" textLength="175.3452" x="322.18" y="430.3993">Clean layered architecture with</text><text fill="#000000" font-family="Helvetica" font-size="12" lengthAdjust="spacing" textLength="180.3493" x="322.18" y="446.7434">unidirectional dependency flow.</text></g><!--link main to api--><g class="link" data-entity-1="main" data-entity-2="api" data-source-line="67" data-uid="lnk19" id="link_main_api"><path d="M108.42,608.2971 C179.26,592.2971 315.7975,561.4392 382.8175,546.2992" fill="none" id="main-to-api" style="stroke:#4A90E2;stroke-width:2;"/><polygon fill="#4A90E2" points="388.67,544.9771,379.0098,543.0586,383.7929,546.0788,380.7726,550.8619,388.67,544.9771" style="stroke:#4A90E2;stroke-width:2;"/><text fill="#000000" font-family="Helvetica" font-size="12" lengthAdjust="spacing" textLength="68.6045" x="179.18" y="565.8152">imports app</text></g><!--link main to config--><g class="link" data-entity-1="main" data-entity-2="config" data-source-line="68" data-uid="lnk20" id="link_main_config"><path d="M71.16,641.2871 C91.92,740.5371 186.82,1119.7471 425.11,1119.7471 C425.11,1119.7471 425.11,1119.7471 1252.47,1119.7471 C1352.93,1119.7471 1380.53,1078.0971 1444.64,1000.7471 C1498.18,936.1671 1520.9794,841.9934 1529.4594,796.9734" fill="none" id="main-to-config" style="stroke:#4A90E2;stroke-width:2;"/><polygon fill="#4A90E2" points="1530.57,791.0771,1524.9732,799.1811,1529.6445,795.9907,1532.8349,800.662,1530.57,791.0771" style="stroke:#4A90E2;stroke-width:2;"/><text fill="#000000" font-family="Helvetica" font-size="12" lengthAdjust="spacing" textLength="91.9327" x="778.67" y="1115.5752">imports settings</text></g><!--link aws to api--><g class="link" data-entity-1="aws" data-entity-2="api" data-source-line="69" data-uid="lnk21" id="link_aws_api"><path d="M105.3,536.7471 C175.01,536.7471 314.72,536.7471 382.71,536.7471" fill="none" id="aws-to-api" style="stroke:#4A90E2;stroke-width:2;"/><polygon fill="#4A90E2" points="388.71,536.7471,379.71,532.7471,383.71,536.7471,379.71,540.7471,388.71,536.7471" style="stroke:#4A90E2;stroke-width:2;"/><text fill="#000000" font-family="Helvetica" font-size="12" lengthAdjust="spacing" textLength="144.745" x="141.18" y="532.5752">imports app (via chat_api)</text></g><!--link api to chat--><g class="link" data-entity-1="api" data-entity-2="chat" data-source-line="72" data-uid="lnk22" id="link_api_chat"><path d="M441.11,560.1371 C462.93,594.1471 508.59,656.1071 566.05,682.7471 C637.03,715.6671 725.1657,711.3264 777.5957,704.8164" fill="none" id="api-to-chat" style="stroke:#4A90E2;stroke-width:2;"/><polygon fill="#4A90E2" points="783.55,704.0771,774.1257,701.2165,778.5881,704.6932,775.1115,709.1556,783.55,704.0771" style="stroke:#4A90E2;stroke-width:2;"/><text fill="#000000" font-family="Helvetica" font-size="12" lengthAdjust="spacing" textLength="79.3086" x="570.312" y="645.5752">ChatMessage,</text><text fill="#000000" font-family="Helvetica" font-size="12" lengthAdjust="spacing" textLength="83.8326" x="568.05" y="661.9193">ChatResponse,</text><text fill="#000000" font-family="Helvetica" font-size="12" lengthAdjust="spacing" textLength="66.0965" x="576.9181" y="678.2634">ChatService</text></g><!--link api to config--><g class="link" data-entity-1="api" data-entity-2="config" data-source-line="73" data-uid="lnk23" id="link_api_config"><path d="M431.19,560.1971 C446.52,639.8171 508.96,899.1971 683.05,977.7471 C943.38,1095.2171 1049.95,1071.2071 1325.41,995.7471 C1381.17,980.4771 1402.55,983.3671 1444.64,943.7471 C1490.6,900.4871 1515.1632,834.2332 1526.3032,797.1632" fill="none" id="api-to-config" style="stroke:#4A90E2;stroke-width:2;"/><polygon fill="#4A90E2" points="1528.03,791.4171,1521.6091,798.8851,1526.591,796.2055,1529.2706,801.1875,1528.03,791.4171" style="stroke:#4A90E2;stroke-width:2;"/><text fill="#000000" font-family="Helvetica" font-size="12" lengthAdjust="spacing" textLength="44.8203" x="1057.79" y="1033.3952">settings</text></g><!--link api to exceptions--><g class="link" data-entity-1="api" data-entity-2="exceptions" data-source-line="74" data-uid="lnk24" id="link_api_exceptions"><path d="M437.87,560.1571 C458.87,604.5571 508.36,702.9471 566.05,774.7471 C697.87,938.8071 786.98,944.6971 995.29,974.7471 C1141.27,995.8071 1191.17,1001.8671 1325.41,940.7471 C1385.84,913.2371 1413.14,909.1971 1444.64,850.7471 C1457.74,826.4371 1437.28,749.6871 1452.64,726.7471 C1458.54,717.9471 1461.7839,714.0685 1470.9939,708.6285" fill="none" id="api-to-exceptions" style="stroke:#4A90E2;stroke-width:2;"/><polygon fill="#4A90E2" points="1476.16,705.5771,1466.3765,706.7102,1471.8549,708.1199,1470.4451,713.5983,1476.16,705.5771" style="stroke:#4A90E2;stroke-width:2;"/><text fill="#000000" font-family="Helvetica" font-size="12" lengthAdjust="spacing" textLength="77.0766" x="1041.3761" y="921.5752">ChatAPIError,</text><text fill="#000000" font-family="Helvetica" font-size="12" lengthAdjust="spacing" textLength="103.2487" x="1028.29" y="937.9193">LLMProviderError,</text><text fill="#000000" font-family="Helvetica" font-size="12" lengthAdjust="spacing" textLength="76.0325" x="1041.8981" y="954.2634">StorageError,</text><text fill="#000000" font-family="Helvetica" font-size="12" lengthAdjust="spacing" textLength="85.1406" x="1037.3441" y="970.6075">ValidationError</text></g><!--link api to middleware--><g class="link" data-entity-1="api" data-entity-2="middleware" data-source-line="75" data-uid="lnk25" id="link_api_middleware"><path d="M463.31,536.1071 C531.29,534.9071 672.7109,532.4027 756.2409,530.9327" fill="none" id="api-to-middleware" style="stroke:#4A90E2;stroke-width:2;"/><polygon fill="#4A90E2" points="762.24,530.8271,753.171,526.9861,757.2408,530.9151,753.3118,534.9848,762.24,530.8271" style="stroke:#4A90E2;stroke-width:2;"/><text fill="#000000" font-family="Helvetica" font-size="12" lengthAdjust="spacing" textLength="85.9926" x="567.05" y="528.6552">add_request_id</text></g><!--link api to providers--><g class="link" data-entity-1="api" data-entity-2="providers" data-source-line="76" data-uid="lnk26" id="link_api_providers"><path d="M463.13,516.0471 C484.45,503.6771 511.92,487.5371 536.05,472.7471 C602.16,432.2071 608.61,400.5071 683.05,378.7471 C864.93,325.5671 1087.3496,370.3508 1190.0996,396.8108" fill="none" id="api-to-providers" style="stroke:#4A90E2;stroke-width:2;"/><polygon fill="#4A90E2" points="1195.91,398.3071,1188.1919,392.189,1191.068,397.0602,1186.1968,399.9363,1195.91,398.3071" style="stroke:#4A90E2;stroke-width:2;"/><text fill="#000000" font-family="Helvetica" font-size="12" lengthAdjust="spacing" textLength="111.2768" x="768.67" y="350.1352">create_llm_provider</text></g><!--link api to storage--><g class="link" data-entity-1="api" data-entity-2="storage" data-source-line="77" data-uid="lnk27" id="link_api_storage"><path d="M440.88,560.2771 C463.24,596.8371 510.56,667.7571 566.05,712.7471 C761.36,871.1471 1074.0133,896.9085 1195.4033,900.9285" fill="none" id="api-to-storage" style="stroke:#4A90E2;stroke-width:2;"/><polygon fill="#4A90E2" points="1201.4,901.1271,1192.5373,896.8314,1196.4027,900.9616,1192.2725,904.827,1201.4,901.1271" style="stroke:#4A90E2;stroke-width:2;"/><text fill="#000000" font-family="Helvetica" font-size="12" lengthAdjust="spacing" textLength="76.2965" x="786.2821" y="771.0152">create_cache,</text><text fill="#000000" font-family="Helvetica" font-size="12" lengthAdjust="spacing" textLength="98.5207" x="775.17" y="787.3593">create_repository</text></g><!--link api to types--><g class="link" data-entity-1="api" data-entity-2="types" data-source-line="78" data-uid="lnk28" id="link_api_types"><path d="M463.41,543.1071 C512.88,551.4271 604.33,565.5371 683.05,570.7471 C808.21,579.0271 853.75,628.1471 965.29,570.7471 C985.68,560.2471 974.89,539.2471 995.29,528.7471 C1062.07,494.3771 1089.49,521.8471 1164.29,528.7471 C1236.82,535.4471 1254.06,544.0871 1325.41,558.7471 C1383.16,570.6071 1443.6872,584.4327 1485.8672,594.2827" fill="none" id="api-to-types" style="stroke:#4A90E2;stroke-width:2;stroke-dasharray:7,7;"/><polygon fill="#4A90E2" points="1491.71,595.6471,1483.8554,589.7052,1486.841,594.5101,1482.0362,597.4956,1491.71,595.6471" style="stroke:#4A90E2;stroke-width:2;"/><text fill="#000000" font-family="Helvetica" font-size="12" lengthAdjust="spacing" textLength="89.6167" x="1035.29" y="507.6452">MessageRecord</text></g><!--link chat to exceptions--><g class="link" data-entity-1="chat" data-entity-2="exceptions" data-source-line="81" data-uid="lnk29" id="link_chat_exceptions"><path d="M865.08,697.1271 C984.01,695.2871 1330.4307,689.9102 1470.2907,687.7402" fill="none" id="chat-to-exceptions" style="stroke:#4A90E2;stroke-width:2;"/><polygon fill="#4A90E2" points="1476.29,687.6471,1467.229,683.7872,1471.2906,687.7247,1467.3531,691.7862,1476.29,687.6471" style="stroke:#4A90E2;stroke-width:2;"/><text fill="#000000" font-family="Helvetica" font-size="12" lengthAdjust="spacing" textLength="103.2487" x="1199.97" y="669.9252">LLMProviderError,</text><text fill="#000000" font-family="Helvetica" font-size="12" lengthAdjust="spacing" textLength="72.8165" x="1215.1861" y="686.2693">StorageError</text></g><!--link chat to providers--><g class="link" data-entity-1="chat" data-entity-2="providers" data-source-line="82" data-uid="lnk30" id="link_chat_providers"><path d="M854.01,674.1071 C886.42,648.7371 941.56,609.0871 995.29,586.7471 C1066.2,557.2671 1103.55,597.7371 1164.29,550.7471 C1170.58,545.8771 1168.35,541.6471 1172.29,534.7471 C1192.12,499.9971 1214.3197,466.3742 1230.7197,442.3242" fill="none" id="chat-to-providers" style="stroke:#4A90E2;stroke-width:2;stroke-dasharray:7,7;"/><polygon fill="#4A90E2" points="1234.1,437.3671,1225.7247,442.5492,1231.283,441.498,1232.3343,447.0564,1234.1,437.3671" style="stroke:#4A90E2;stroke-width:2;"/><text fill="#000000" font-family="Helvetica" font-size="12" lengthAdjust="spacing" textLength="128.7369" x="1015.79" y="546.5752">LLMProvider (Protocol)</text></g><!--link chat to storage--><g class="link" data-entity-1="chat" data-entity-2="storage" data-source-line="83" data-uid="lnk31" id="link_chat_storage"><path d="M865.08,711.7571 C948.88,741.3071 1137.62,808.6271 1164.29,824.7471 C1188.67,839.4871 1208.3211,857.2811 1224.7211,874.0211" fill="none" id="chat-to-storage" style="stroke:#4A90E2;stroke-width:2;stroke-dasharray:7,7;"/><polygon fill="#4A90E2" points="1228.92,878.3071,1225.479,869.0789,1225.4209,874.7355,1219.7644,874.6774,1228.92,878.3071" style="stroke:#4A90E2;stroke-width:2;"/><text fill="#000000" font-family="Helvetica" font-size="12" lengthAdjust="spacing" textLength="167.4492" x="996.29" y="740.3052">Cache, Repository (Protocols),</text><text fill="#000000" font-family="Helvetica" font-size="12" lengthAdjust="spacing" textLength="57.0604" x="1051.4844" y="756.6493">cache_key</text></g><!--link chat to types--><g class="link" data-entity-1="chat" data-entity-2="types" data-source-line="84" data-uid="lnk32" id="link_chat_types"><path d="M864.99,690.4571 C899.44,684.2071 950.6,675.0871 995.29,667.7471 C1146.72,642.8671 1183.96,631.1971 1336.64,615.7471 C1389.84,610.3671 1445.3925,608.0004 1485.5225,606.8404" fill="none" id="chat-to-types" style="stroke:#4A90E2;stroke-width:2;stroke-dasharray:7,7;"/><polygon fill="#4A90E2" points="1491.52,606.6671,1482.4082,602.9288,1486.5221,606.8116,1482.6393,610.9255,1491.52,606.6671" style="stroke:#4A90E2;stroke-width:2;"/><text fill="#000000" font-family="Helvetica" font-size="12" lengthAdjust="spacing" textLength="64.1044" x="1219.7261" y="580.1052">ChatResult,</text><text fill="#000000" font-family="Helvetica" font-size="12" lengthAdjust="spacing" textLength="75.6005" x="1213.9781" y="596.4493">HealthStatus,</text><text fill="#000000" font-family="Helvetica" font-size="12" lengthAdjust="spacing" textLength="89.6167" x="1206.97" y="612.7934">MessageRecord</text></g><!--link providers to exceptions--><g class="link" data-entity-1="providers" data-entity-2="exceptions" data-source-line="87" data-uid="lnk33" id="link_providers_exceptions"><path d="M1275.96,437.1471 C1326,487.0471 1438.99,600.2971 1444.64,610.7471 C1452.44,625.1671 1442.5,633.8771 1452.64,646.7471 C1459,654.8171 1462.2349,658.331 1471.2349,663.611" fill="none" id="providers-to-exceptions" style="stroke:#4A90E2;stroke-width:2;"/><polygon fill="#4A90E2" points="1476.41,666.6471,1470.6713,658.6429,1472.0974,664.117,1466.6232,665.5431,1476.41,666.6471" style="stroke:#4A90E2;stroke-width:2;"/><text fill="#000000" font-family="Helvetica" font-size="12" lengthAdjust="spacing" textLength="106.8728" x="1337.64" y="497.3352">ConfigurationError</text></g><!--link providers to retry_mod--><g class="link" data-entity-1="providers" data-entity-2="retry_mod" data-source-line="88" data-uid="lnk34" id="link_providers_retry_mod"><path d="M1306.96,399.5971 C1316.78,397.5771 1326.97,395.8271 1336.64,394.7471 C1390.57,388.7371 1447.2794,390.191 1487.3894,392.441" fill="none" id="providers-to-retry_mod" style="stroke:#4A90E2;stroke-width:2;"/><polygon fill="#4A90E2" points="1493.38,392.7771,1484.6182,388.2793,1488.3878,392.497,1484.1701,396.2667,1493.38,392.7771" style="stroke:#4A90E2;stroke-width:2;"/><text fill="#000000" font-family="Helvetica" font-size="12" lengthAdjust="spacing" textLength="79.4766" x="1351.14" y="386.4952">with_llm_retry</text></g><!--link providers to types--><g class="link" data-entity-1="providers" data-entity-2="types" data-source-line="89" data-uid="lnk35" id="link_providers_types"><path d="M1306.7,419.7671 C1355.54,426.0671 1422.9,437.2171 1444.64,452.7471 C1489.89,485.0571 1514.0672,542.1768 1525.5172,576.4168" fill="none" id="providers-to-types" style="stroke:#4A90E2;stroke-width:2;stroke-dasharray:7,7;"/><polygon fill="#4A90E2" points="1527.42,582.1071,1528.3592,572.3031,1525.8343,577.3652,1520.7722,574.8402,1527.42,582.1071" style="stroke:#4A90E2;stroke-width:2;"/><text fill="#000000" font-family="Helvetica" font-size="12" lengthAdjust="spacing" textLength="69.9245" x="1356.14" y="420.3852">TokenUsage</text></g><!--link retry_mod to exceptions--><g class="link" data-entity-1="retry_mod" data-entity-2="exceptions" data-source-line="90" data-uid="lnk36" id="link_retry_mod_exceptions"><path d="M1493.12,396.8771 C1452.47,400.4971 1393.03,412.9871 1363.78,453.7471 C1308.72,530.4671 1385.21,580.6371 1452.64,646.7471 C1459.48,653.4571 1462.4677,656.2178 1470.9777,661.1078" fill="none" id="retry_mod-to-exceptions" style="stroke:#4A90E2;stroke-width:2;"/><polygon fill="#4A90E2" points="1476.18,664.0971,1470.3694,656.1449,1471.8448,661.606,1466.3837,663.0813,1476.18,664.0971" style="stroke:#4A90E2;stroke-width:2;"/><text fill="#000000" font-family="Helvetica" font-size="12" lengthAdjust="spacing" textLength="100.0327" x="1340.64" y="467.5752">LLMProviderError</text></g><!--link storage to exceptions--><g class="link" data-entity-1="storage" data-entity-2="exceptions" data-source-line="93" data-uid="lnk37" id="link_storage_exceptions"><path d="M1288.66,878.0771 C1330.22,849.5371 1398.6,798.3071 1444.64,741.7471 C1449.41,735.8871 1447.21,731.9971 1452.64,726.7471 C1459.58,720.0471 1462.655,717.2618 1471.235,712.3418" fill="none" id="storage-to-exceptions" style="stroke:#4A90E2;stroke-width:2;"/><polygon fill="#4A90E2" points="1476.44,709.3571,1466.6428,710.3641,1472.1025,711.8443,1470.6223,717.3041,1476.44,709.3571" style="stroke:#4A90E2;stroke-width:2;"/><text fill="#000000" font-family="Helvetica" font-size="12" lengthAdjust="spacing" textLength="72.8165" x="1354.64" y="737.5752">StorageError</text></g><!--link storage to types--><g class="link" data-entity-1="storage" data-entity-2="types" data-source-line="94" data-uid="lnk38" id="link_storage_types"><path d="M1263.12,878.2971 C1277.35,846.9571 1303.33,789.6971 1325.41,740.7471 C1330.42,729.6471 1328.57,724.8671 1336.64,715.7471 C1378.99,667.9571 1441.6522,638.6242 1485.8822,622.0342" fill="none" id="storage-to-types" style="stroke:#4A90E2;stroke-width:2;stroke-dasharray:7,7;"/><polygon fill="#4A90E2" points="1491.5,619.9271,1481.6685,619.3426,1486.8185,621.6831,1484.478,626.833,1491.5,619.9271" style="stroke:#4A90E2;stroke-width:2;"/><text fill="#000000" font-family="Helvetica" font-size="12" lengthAdjust="spacing" textLength="89.6167" x="1346.14" y="637.7552">MessageRecord</text></g><!--link providers to providers--><g class="link" data-entity-1="providers" data-entity-2="providers" data-source-line="97" data-uid="lnk39" id="link_providers_providers"><path d="M1228.32,390.1471 C1220.51,372.8771 1228.22,355.5771 1251.47,355.5771 C1274.71,355.5771 1284.8897,367.4089 1277.0897,384.6789" fill="none" id="providers-to-providers" style="stroke:#008800;stroke-width:2;stroke-dasharray:7,7;"/><polygon fill="#008800" points="1274.62,390.1471,1281.97,383.5913,1276.6781,385.5903,1274.6791,380.2984,1274.62,390.1471" style="stroke:#008800;stroke-width:2;"/><text fill="#000000" font-family="Helvetica" font-size="12" lengthAdjust="spacing" textLength="91.3207" x="1206.0082" y="313.4052">GeminiProvider,</text><text fill="#000000" font-family="Helvetica" font-size="12" lengthAdjust="spacing" textLength="116.9048" x="1193.2161" y="329.7493">OpenRouterProvider</text><text fill="#000000" font-family="Helvetica" font-size="12" lengthAdjust="spacing" textLength="141.397" x="1180.97" y="346.0934">implements LLMProvider</text></g><!--link storage to storage--><g class="link" data-entity-1="storage" data-entity-2="storage" data-source-line="100" data-uid="lnk40" id="link_storage_storage"><path d="M1228.32,878.1471 C1220.51,860.8771 1228.22,843.5771 1251.47,843.5771 C1274.71,843.5771 1284.8897,855.4089 1277.0897,872.6789" fill="none" id="storage-to-storage" style="stroke:#008800;stroke-width:2;stroke-dasharray:7,7;"/><polygon fill="#008800" points="1274.62,878.1471,1281.97,871.5913,1276.6781,873.5903,1274.6791,868.2984,1274.62,878.1471" style="stroke:#008800;stroke-width:2;"/><text fill="#000000" font-family="Helvetica" font-size="12" lengthAdjust="spacing" textLength="233.7137" x="1134.7821" y="785.4052">SQLiteRepository implements Repository,</text><text fill="#000000" font-family="Helvetica" font-size="12" lengthAdjust="spacing" textLength="261.3378" x="1120.97" y="801.7493">DynamoDBRepository implements Repository,</text><text fill="#000000" font-family="Helvetica" font-size="12" lengthAdjust="spacing" textLength="203.7134" x="1149.7822" y="818.0934">InMemoryCache implements Cache,</text><text fill="#000000" font-family="Helvetica" font-size="12" lengthAdjust="spacing" textLength="172.2612" x="1165.5083" y="834.4375">RedisCache implements Cache</text></g><!--link chat to GMN41--><g class="link" data-entity-1="chat" data-entity-2="GMN41" data-source-line="104" data-uid="lnk43" id="link_chat_GMN41"><path d="M783.43,695.1071 C732.88,689.3971 648.59,671.3371 609.55,614.2471 C582.95,575.3571 582.87,547.0771 609.55,508.2471 C627.18,482.5871 653.99,464.8971 682.75,452.7171" fill="none" id="chat-GMN41" style="stroke:#4A90E2;stroke-width:2;stroke-dasharray:7,7;"/></g><!--SRC=[fLVhRjis5FxlfpX8Vom14jVRYY0nEWEfOwq1aYoBi_rP1u6HZcqk4gbHL3AlAT27s1FkINP8YnHroJfWKW2BXz-vVxn4SvqXp3TCmzdD1Lm8ZKgm3EOoBwH0eU4S2nGfYeHZEIeVk2YOOZaKB7bWQrpgBUahJ3GJwmm3GE8ix21LddqJpDwJ-bh9IgHpcKa5hwA5UGD4YYjMPJgIGb-p7E4zPe-eUSA6CKl-9yBNeOipfUJJtOOd3mBB4dfJjUCtPwUJHJZfKt_NZN5n4hs9pWUXKgMeNh9uBJNsZ4NqpEUZqLTmYMkgy2YpFw1b0OglDthq_1qij_czp82-hf09BjRmF7g6juanCNqriS_ixyz_qT_ixMihdi4pd7FJ4U0KdT93AaT0RwXnewIMD38w6UQK4jDSYfRkoSIyix5v0jMxRO57KcJR8NzHj3XU7CzyeG8zmxTBjaNLKbWSHzz6qQ324jKZJt1OANh12oNsoAat0rf69peTTgMb8dOFAaMdBxXQRfZ2z3LDvPtABIRc7LHQ2AssS2Evq2Nf40DsFB34O5jPQKXjDwaRH96L9eBi-1782HlQ6TMB4_P2wHxKSS374T3Z5oZinN7Ek8ZZSR7T0rQ26Jbq5ykUIWUZJu_wP8BmBMqYyA8zgCdGTyyAxaqMtE6wg9odL9idgh4FqqkyZWsZHPGcb9ROLCDIhHzEGhkXSs6-7N9dl4sendfRlZCV3MLRr41VHYzmEbqDXTH5XxQ3E9UfH-zo3XaRv1oAwnP4f_sWoXtEEQc73b-x2FaTkB1YQziiZO5wIh7YQrzHEtBeBXR_IB0mdFRLQIGlwMZQW3pS3ZpoKxCq2hC8wCG8JZDBywEZcMNTjDw-30UBPgeEjvajKMlQYCkHOV-WCkm_ScQP4zFSGMjXj0CmgjQ9OTdK7iDNT5PHMGy_23EwnPAoBDsmPd2Zvu9hWgfdWghjx5842phr55cwlBnoP7MYcYPk-3FBU6eF02lnLeC5DmMMfh72toiiTSnJZsdOF8L48TCOPraUEx77EOfvLCAIZKcq7YeiPCa9jBKgu_6ixkqKwXhTOaB7Rc_1jqjiIzkho1TAiDCoBiDi0YNOTmVcGODjCfhRLE3Mfz3WomEJefcF7t3RABlSwgxJhOPmxv5bUhEaixWgQTZBktEujH9l8k_pmTAcKa67s-XcZvd24zSRsq4h381Xr7Vo0SLF9hXHe_l5glVshNO6hfuzEwrMETI_4iGNgdszAM4_PUK6KyWuNH9XHHUpOlWcT12Mw1UwHvsSJ2Q7E-rVExJ_7dCkkFD9ZVk1ihgbenoL4tuGtdmPrYKioV-8rPTk8DA6fiiVBxd6WAL1J8sKuZ_V2fRBytV_0Nf1BCtfqow143Mlb_SjfhmSdZN9cxioi7jxxt5a86_Yj_gg8ypylTHQvY1NTkUayo3O7A4ggJg3kc3lJfWWVyImwE5AFGH6b_1TED1h0IrMLGdDSpGtDJ31T88M4XAkaYfZ7JPt0gSzZUnVlu2cWQQWCHsRv3Aw-qDc5WXrdwbamyraHRkmMPo4g0Jtbq7wvor8VfN9ft4Jwpy0]--></g></svg>
